<svg width="101" height="35" viewBox="0 0 101 35" fill="none" xmlns="http://www.w3.org/2000/svg">
<path d="M90.0313 34.4816V27.6176L90.9193 29.9696L83.5273 17.6816H87.6553L93.3193 27.1136H90.9433L96.6313 17.6816H100.447L93.0553 29.9696L93.9193 27.6176V34.4816H90.0313Z" fill="#1E1E1E"/>
<path d="M74.8272 34.4816V14.8496H69.4512V11.6816H84.0912V14.8496H78.7152V34.4816H74.8272Z" fill="#1E1E1E"/>
<path d="M53.9333 34.4816V17.6816H61.2053C62.7093 17.6816 64.0053 17.9296 65.0933 18.4256C66.1813 18.9056 67.0214 19.6016 67.6134 20.5136C68.2054 21.4256 68.5013 22.5136 68.5013 23.7776C68.5013 25.0256 68.2054 26.1056 67.6134 27.0176C67.0214 27.9136 66.1813 28.6016 65.0933 29.0816C64.0053 29.5616 62.7093 29.8016 61.2053 29.8016H56.0933L57.8214 28.0976V34.4816H53.9333ZM64.6133 34.4816L60.4133 28.3856H64.5653L68.8134 34.4816H64.6133ZM57.8214 28.5296L56.0933 26.7056H60.9893C62.1894 26.7056 63.0853 26.4496 63.6773 25.9376C64.2693 25.4096 64.5653 24.6896 64.5653 23.7776C64.5653 22.8496 64.2693 22.1296 63.6773 21.6176C63.0853 21.1056 62.1894 20.8496 60.9893 20.8496H56.0933L57.8214 19.0016V28.5296Z" fill="#1E1E1E"/>
<path d="M33.3505 34.4816L40.8385 17.6816H44.6785L52.1905 34.4816H48.1105L41.9665 19.6496H43.5025L37.3345 34.4816H33.3505ZM37.0945 30.8816L38.1265 27.9296H46.7665L47.8225 30.8816H37.0945Z" fill="#1E1E1E"/>
<path d="M19.0583 34.4816V17.6816H26.3303C27.8343 17.6816 29.1303 17.9296 30.2183 18.4256C31.3063 18.9056 32.1463 19.6016 32.7383 20.5136C33.3303 21.4256 33.6264 22.5136 33.6264 23.7776C33.6264 25.0256 33.3303 26.1056 32.7383 27.0176C32.1463 27.9296 31.3063 28.6336 30.2183 29.1296C29.1303 29.6096 27.8343 29.8496 26.3303 29.8496H21.2183L22.9464 28.0976V34.4816H19.0583ZM22.9464 28.5296L21.2183 26.6816H26.1143C27.3144 26.6816 28.2103 26.4256 28.8023 25.9136C29.3943 25.4016 29.6903 24.6896 29.6903 23.7776C29.6903 22.8496 29.3943 22.1296 28.8023 21.6176C28.2103 21.1056 27.3144 20.8496 26.1143 20.8496H21.2183L22.9464 19.0016V28.5296Z" fill="#1E1E1E"/>
<path d="M7.608 34.7696C5.224 34.7696 3.36 34.1056 2.016 32.7776C0.672 31.4496 0 29.5536 0 27.0896V17.6816H3.888V26.9456C3.888 28.5456 4.216 29.6976 4.872 30.4016C5.528 31.1056 6.448 31.4576 7.632 31.4576C8.816 31.4576 9.736 31.1056 10.392 30.4016C11.048 29.6976 11.376 28.5456 11.376 26.9456V17.6816H15.216V27.0896C15.216 29.5536 14.544 31.4496 13.2 32.7776C11.856 34.1056 9.992 34.7696 7.608 34.7696Z" fill="#1E1E1E"/>
<circle cx="77.1172" cy="5" r="5" fill="#9347E3"/>
</svg>
