<svg width="31" height="37" viewBox="0 0 31 37" fill="none" xmlns="http://www.w3.org/2000/svg">
<path d="M15.5 0C13.952 0 12.6855 1.332 12.6855 2.96V3.35312C7.84598 4.6777 4.24185 9.31074 4.24185 14.8V18.3526C4.24185 20.7206 3.81912 22.94 2.97476 25.16H28.0252C27.1809 22.94 26.7582 20.7206 26.7582 18.3526V14.8C26.7582 9.31074 23.154 4.6777 18.3145 3.35312V2.96C18.3145 1.332 17.048 0 15.5 0ZM1.42731 28.12C1.24083 28.1172 1.05569 28.1535 0.882638 28.2266C0.709589 28.2997 0.552086 28.4083 0.419282 28.546C0.286479 28.6837 0.181023 28.8478 0.109045 29.0287C0.0370661 29.2097 0 29.4039 0 29.6C0 29.7961 0.0370661 29.9903 0.109045 30.1713C0.181023 30.3522 0.286479 30.5163 0.419282 30.654C0.552086 30.7917 0.709589 30.9003 0.882638 30.9734C1.05569 31.0465 1.24083 31.0828 1.42731 31.08H11.5228C11.3743 31.5423 11.2782 32.0338 11.2782 32.56C11.2782 35.076 13.1076 37 15.5 37C17.8924 37 19.7218 35.076 19.7218 32.56C19.7218 32.0338 19.6257 31.5423 19.4772 31.08H29.5727C29.7592 31.0828 29.9443 31.0465 30.1174 30.9734C30.2904 30.9003 30.4479 30.7917 30.5807 30.654C30.7135 30.5163 30.819 30.3522 30.891 30.1713C30.9629 29.9903 31 29.7961 31 29.6C31 29.4039 30.9629 29.2097 30.891 29.0287C30.819 28.8478 30.7135 28.6837 30.5807 28.546C30.4479 28.4083 30.2904 28.2997 30.1174 28.2266C29.9443 28.1535 29.7592 28.1172 29.5727 28.12H1.42731Z" fill="#1E1E1E"/>
</svg>
